<svg xmlns="http://www.w3.org/2000/svg" xmlns:xlink="http://www.w3.org/1999/xlink"><defs><clipPath id="clip0_0_31"><path fill="#fff" transform="translate(43 5)" d="M0 0h97v15H0z"/></clipPath><clipPath id="clip1_0_31"><path fill="#fff" d="M0 0h35v24H0z"/></clipPath></defs><symbol id="logo-welbex"><g fill="none"><g clip-path="url(#clip0_0_31)"><path fill-rule="evenodd" clip-rule="evenodd" d="M45.002 5l6.287 12.557-.79 1.563L43.168 5h1.833zm20.385 0l-7.27 14.12L50.46 5h1.774l5.882 11.051a178.757 178.757 0 002.131-4.217c.38-.778.756-1.547 1.129-2.306.372-.76.71-1.453 1.012-2.08.302-.628.556-1.162.762-1.6.206-.44.34-.722.405-.848h1.832zm13.875 1.374V5h-9.335v14.138h9.335v-1.374h-7.907v-4.989h6.596v-1.374h-6.596V6.374h7.907zm4.155 12.764V5h1.427v12.764h7.907v1.374h-9.334zM96.906 5v14.138h6.923c.103 0 .332-.034.685-.103.354-.07.736-.223 1.148-.461.193-.113.395-.26.607-.443.212-.182.402-.404.569-.668a3.85 3.85 0 00.415-.932c.109-.358.164-.775.164-1.252 0-.54-.071-1.01-.212-1.412a3.817 3.817 0 00-.54-1.035 2.868 2.868 0 00-.743-.697 4.144 4.144 0 00-.839-.414c.283-.276.527-.656.733-1.139.206-.483.308-1.064.308-1.741 0-.502-.054-.935-.163-1.3a3.815 3.815 0 00-.415-.94 2.912 2.912 0 00-.559-.66 3.728 3.728 0 00-1.225-.725 4.01 4.01 0 00-.54-.15 3.177 3.177 0 00-.569-.066h-5.747zm6.885 12.764c.051 0 .193-.022.424-.066.232-.044.479-.147.743-.31.263-.164.498-.411.704-.744.205-.333.308-.788.308-1.365s-.103-1.032-.308-1.365c-.206-.332-.441-.583-.704-.753a2.132 2.132 0 00-.752-.32 3.745 3.745 0 00-.434-.066h-5.439v4.99h5.458zm-.723-6.438c-.225.05-.364.075-.415.075h-4.32V6.374h4.32c.026 0 .148.02.366.057.219.037.457.135.714.292.257.156.492.401.704.734.212.332.318.794.318 1.384 0 .577-.099 1.035-.299 1.374-.199.339-.424.596-.675.772-.25.175-.488.288-.713.339zM121.639 5v1.374h-7.908v5.027h6.596v1.374h-6.596v4.99h7.908v1.373h-9.335V5h9.335zm10.692 8.114l4.822 6.024h1.89l-5.612-7.078L139.043 5h-1.89l-4.822 6.024L127.78 5h-2.141l5.612 7.06-5.612 7.078h2.141l4.551-6.024z" fill="#E4E5EA"/></g><g clip-path="url(#clip1_0_31)"><path fill-rule="evenodd" clip-rule="evenodd" d="M24.595 0H0v12.784h1.32V1.29h21.954v4.238h-2.19v.01h-.016c-.058.114-.182.373-.37.774-.188.402-.42.89-.697 1.463-.276.574-.585 1.208-.926 1.902a790.01 790.01 0 00-1.032 2.109 160.12 160.12 0 01-1.95 3.856L10.715 5.536H9.092l7.002 12.909 6.007-11.66h2.492v-.014h.002V0zM0 17.196h.006v-.014H8.47L2.424 5.537H4.1l5.75 11.48-.723 1.429-.011-.021v.015H1.32v4.271h21.953V11.184h1.32V24H0v-6.804zM33.695 24V0h1.357v24h-1.357z" fill="#E4E5EA"/></g></g></symbol><symbol id="telegram"><g fill="none"><path d="M18.665.718L.935 7.555c-1.21.486-1.203 1.16-.222 1.462l4.552 1.42 10.532-6.645c.498-.303.953-.14.579.192l-8.533 7.7h-.002l.002.002-.314 4.692c.46 0 .663-.211.921-.46l2.211-2.15 4.599 3.397c.848.467 1.457.227 1.668-.785l3.019-14.228c.309-1.24-.473-1.8-1.282-1.434z" fill="#E4E5EA"/></g></symbol><symbol id="viber"><g fill="none"><path d="M10.968 0c-.357 0-.645.274-.645.613 0 .338.288.613.645.613 4.275 0 7.742 3.293 7.742 7.355 0 .338.288.613.645.613.356 0 .645-.275.645-.613C20 3.84 15.956 0 10.968 0zM2.71 2c.365-.179 1.009-.27 1.378.057a14.988 14.988 0 011.661 1.75c.489.624 1.173 1.575 1.27 1.787.098.211.207.96-.282 1.412-.39.362-.9.683-1.107.798a1.03 1.03 0 00-.228 1.23c.347.75 1.097 2.22 2.389 3.316 1.292 1.095 2.66 1.672 3.518 1.854.054 0 .124.013.206.027.29.052.723.128 1.097-.248.382-.384.73-.788.857-.941a1.477 1.477 0 011.499-.308c.901.308 1.933.98 2.4 1.297.373.254 1.205.856 1.574 1.125.224.163.6.65.304 1.288-.37.797-1.944 2.556-3.355 2.556-.521 0-5.56-1.355-10.011-5.18C3.036 11.377.588 7.138.168 5.71.01 5.37-.179 4.532.342 3.901.863 3.272 1.45 2.615 2.71 2zM10.968 4.903c-.357 0-.645.275-.645.613 0 .339.288.613.645.613 1.425 0 2.58 1.098 2.58 2.452 0 .338.29.613.646.613.356 0 .645-.275.645-.613 0-2.031-1.733-3.678-3.871-3.678z" fill="#E4E5EA"/><path d="M10.323 3.065c0-.339.288-.613.645-.613 3.563 0 6.451 2.744 6.451 6.129 0 .338-.288.613-.645.613-.356 0-.645-.275-.645-.613 0-2.708-2.31-4.904-5.161-4.904-.357 0-.645-.274-.645-.612z" fill="#E4E5EA"/></g></symbol><symbol id="wa"><g fill="none"><path fill-rule="evenodd" clip-rule="evenodd" d="M16.802 3.191a9.5 9.5 0 00-3.1-2.07 9.538 9.538 0 00-3.662-.72C4.771.4.482 4.667.48 9.914c0 1.676.44 3.313 1.276 4.756L.4 19.601l5.068-1.324a9.6 9.6 0 004.568 1.158h.005c5.268 0 9.557-4.268 9.559-9.514a9.423 9.423 0 00-2.798-6.73zm-6.761 14.638h-.004c-1.423 0-2.82-.38-4.044-1.103l-.29-.172-3.007.786.802-2.918-.189-.299a7.866 7.866 0 01-1.215-4.208c.002-4.36 3.567-7.908 7.95-7.908a7.927 7.927 0 015.617 2.32 7.831 7.831 0 012.325 5.595c-.003 4.36-3.567 7.907-7.946 7.907zm4.358-5.923c-.24-.12-1.413-.694-1.632-.774-.219-.08-.377-.118-.537.119-.16.237-.618.773-.757.932-.14.159-.28.178-.518.059s-1.008-.37-1.92-1.18c-.711-.63-1.19-1.408-1.33-1.647-.14-.238-.015-.366.106-.485.107-.106.238-.278.357-.417.12-.138.16-.237.239-.396.08-.159.04-.298-.02-.416-.06-.12-.538-1.29-.737-1.766-.193-.461-.39-.4-.537-.406a10.34 10.34 0 00-.457-.009.883.883 0 00-.638.297c-.219.239-.836.813-.836 1.983 0 1.17.857 2.301.976 2.46.12.159 1.685 2.56 4.08 3.59.571.245 1.016.39 1.363.501.571.181 1.092.155 1.504.094.46-.068 1.413-.574 1.612-1.13.2-.555.2-1.03.14-1.13-.06-.1-.22-.16-.458-.279z" fill="#E4E5EA"/></g></symbol></svg>